<svg viewBox="368 3077 18 24" xmlns="http://www.w3.org/2000/svg"><g fill="#dd4358"><path d="m372 3090h10v2h-10z"/><path d="m372 3086h8v2h-8z"/><path d="m372 3094h10v2h-10z"/><path d="m16 2h-2v-1a1 1 0 0 0 -2 0v1h-2v-1a.945.945 0 0 0 -1-1 .945.945 0 0 0 -1 1v1h-2v-1a.945.945 0 0 0 -1-1 .945.945 0 0 0 -1 1v1h-2a2.006 2.006 0 0 0 -2 2v18a2.006 2.006 0 0 0 2 2h14a2.006 2.006 0 0 0 2-2v-18a2.006 2.006 0 0 0 -2-2zm-14 20v-18h2v1a.945.945 0 0 0 1 1 .945.945 0 0 0 1-1v-1h2v1a.945.945 0 0 0 1 1 .945.945 0 0 0 1-1v-1h2v1a1 1 0 0 0 2 0v-1h2v18z" transform="translate(368 3077)"/></g></svg>