<svg viewBox="367 2832 20 20" xmlns="http://www.w3.org/2000/svg"><g fill="#dd4358" transform="translate(367 2832)"><path d="m10 20a10 10 0 1 1 10-10 10.029 10.029 0 0 1 -10 10zm0-18a8 8 0 1 0 8 8 8.024 8.024 0 0 0 -8-8z"/><path d="m10 16a.749.749 0 0 1 -.5-.1c-.6-.4-5.5-3.4-5.5-6.9a3.779 3.779 0 0 1 4-4 2.973 2.973 0 0 1 2 .8 2.973 2.973 0 0 1 2-.8 3.779 3.779 0 0 1 4 4c0 3.5-4.9 6.5-5.5 6.9a.749.749 0 0 1 -.5.1zm-2-9a1.838 1.838 0 0 0 -2 2c0 1.7 2.6 3.8 4 4.8 1.4-1 4-3.1 4-4.8a1.838 1.838 0 0 0 -2-2 1.285 1.285 0 0 0 -1 1 .945.945 0 0 1 -1 1 1 1 0 0 1 -1-1 1.285 1.285 0 0 0 -1-1z"/></g></svg>