<svg viewBox="660 3082.825 22 17.975" xmlns="http://www.w3.org/2000/svg"><g fill="#dd4358" transform="translate(614 2317)"><path d="m67.4 770.9-10-5a1.388 1.388 0 0 0 -.9 0l-10 5a.664.664 0 0 0 -.4.5.6.6 0 0 0 -.1.4v5.8a1 1 0 0 0 2 0v-4.3l2 .8v4.9a.961.961 0 0 0 .6.9 12.442 12.442 0 0 0 6.4 1.9c2.9 0 4.7-1.1 6.4-1.9a1.149 1.149 0 0 0 .6-.9v-4.9l3.4-1.3a.875.875 0 0 0 .6-.9 1.1 1.1 0 0 0 -.6-1zm-5.4 7.5-1 .5a8.693 8.693 0 0 1 -8 0l-1-.5v-3.5l4.6 1.9c.1 0 .2.1.4.1s.3 0 .4-.1l4.6-1.9zm-5-3.6-7.6-3 7.6-3.8 7.6 3.8z"/><path d="m47 779.8a.945.945 0 0 0 -1 1v2a1 1 0 0 0 2 0v-2a1 1 0 0 0 -1-1z"/></g></svg>