<?xml version="1.0" encoding="utf-8"?>
<!-- Generator: Adobe Illustrator 17.1.0, SVG Export Plug-In . SVG Version: 6.00 Build 0)  -->
<!DOCTYPE svg PUBLIC "-//W3C//DTD SVG 1.1//EN" "http://www.w3.org/Graphics/SVG/1.1/DTD/svg11.dtd">
<svg version="1.1" id="Layer_1" xmlns="http://www.w3.org/2000/svg" xmlns:xlink="http://www.w3.org/1999/xlink" x="0px" y="0px"
	 viewBox="0 0 50 50" enable-background="new 0 0 50 50" xml:space="preserve">
<g>
	<g>
		<path fill="none" stroke="#D83A4E" stroke-width="2" stroke-linejoin="round" stroke-miterlimit="10" d="M38.3,19.9
			c-0.8,0.8-1.4,1-2.6,1c-2.4,0-4.1-1.8-4.1-4.1c0-1.2,0.3-1.8,1-2.6l-3.1-3.1L9.5,31.2l3.1,3.1c0.8-0.8,1.4-1,2.6-1
			c2.4,0,4.1,1.8,4.1,4.1c0,1.2-0.3,1.8-1,2.6l3.1,3.1L41.4,23L38.3,19.9z"/>
		
			<line fill="none" stroke="#D83A4E" stroke-width="2" stroke-linejoin="round" stroke-miterlimit="10" x1="22.4" y1="18.3" x2="24.4" y2="20.4"/>
		
			<line fill="none" stroke="#D83A4E" stroke-width="2" stroke-linejoin="round" stroke-miterlimit="10" x1="32.1" y1="28.1" x2="34.2" y2="30.2"/>
	</g>
	
		<line fill="none" stroke="#D83A4E" stroke-width="2" stroke-linejoin="round" stroke-miterlimit="10" x1="25.4" y1="21.4" x2="27.5" y2="23.5"/>
	
		<line fill="none" stroke="#D83A4E" stroke-width="2" stroke-linejoin="round" stroke-miterlimit="10" x1="29" y1="25" x2="31.1" y2="27.1"/>
</g>
</svg>
