<?xml version="1.0" encoding="utf-8"?>
<!-- Generator: Adobe Illustrator 19.1.0, SVG Export Plug-In . SVG Version: 6.00 Build 0)  -->
<svg version="1.1" id="Layer_1" xmlns="http://www.w3.org/2000/svg" xmlns:xlink="http://www.w3.org/1999/xlink" x="0px" y="0px"
	 viewBox="0 0 50 50" style="enable-background:new 0 0 50 50;" xml:space="preserve">
<style type="text/css">
	.st0{fill:none;stroke:#000000;stroke-width:2;stroke-linejoin:round;stroke-miterlimit:10;}
	.st1{fill:#7AC943;stroke:#000000;stroke-width:2;stroke-miterlimit:10;}
	.st2{fill:none;stroke:#000000;stroke-width:2;stroke-linecap:round;stroke-linejoin:round;stroke-miterlimit:10;}
	.st3{fill:none;stroke:#000000;stroke-width:2;stroke-miterlimit:10;}
	.st4{fill:none;stroke:#000000;stroke-width:2;stroke-linecap:round;stroke-miterlimit:10;}
</style>
<g>
	<path class="st3" d="M33.1,14.9c-3.5-0.2-6.6,2-7.7,5.2c-1.1-3.1-4.1-5.4-7.7-5.2c-4.4,0.3-7.5,4.3-7.1,8.7
		c0.3,3.5,2.2,5.8,4.9,8.5c2.5,2.5,2.7,2.2,8,7.5c1,1,2.7,1,3.7,0c3.6-3.6,4.1-3.5,8-7.5c2.7-2.7,4.5-5,4.9-8.5
		C40.6,19.2,37.5,15.2,33.1,14.9z"/>
	<path class="st4" d="M14,22.9c0-2.6,2.1-4.7,4.7-4.7"/>
</g>
</svg>
