<svg xmlns="http://www.w3.org/2000/svg" viewBox="955.9 3076.9 16.1 24">
  <defs>
    <style>
      .cls-1 {
        fill: #dd4358;
      }
    </style>
  </defs>
  <g id="group-12" transform="translate(140 83)">
    <path id="path" class="cls-1" d="M206.5,290.1l-1.8-6.2h-7.5l-1.8,6.2a8.164,8.164,0,0,0-2.5,5.8,7.779,7.779,0,0,0,2.5,5.8l1.8,6.2h7.5l1.8-6.2a8.164,8.164,0,0,0,2.5-5.8A7.622,7.622,0,0,0,206.5,290.1Zm-7.7-4.3h4.5l.7,2.6a7.8,7.8,0,0,0-6,0Zm4.4,20h-4.5l-.7-2.6a7.8,7.8,0,0,0,6,0Zm-2.2-4a6,6,0,1,1,6-6A5.954,5.954,0,0,1,201,301.8Z" transform="translate(623 2710)"/>
    <path id="path-2" data-name="path" class="cls-1" d="M198,298.8l3-6,3,6-3-2Z" transform="translate(623 2710)"/>
  </g>
</svg>
