<svg viewBox="660 2832 21.977 20" xmlns="http://www.w3.org/2000/svg"><g fill="#dd4358" transform="translate(374 1778.2)"><path d="m303.7 1065.8h-3.7v-2h-2v2h-4v-4h2v-2h-2v-3.7a6.449 6.449 0 0 1 2-.3v-2a10 10 0 1 0 10 10h-2a6.449 6.449 0 0 1 -.3 2zm-11.7-8.9v2.9h-2.9a8.06 8.06 0 0 1 2.9-2.9zm-3.7 4.9h3.7v4h-3.7a6.447 6.447 0 0 1 -.3-2 6.929 6.929 0 0 1 .3-2zm.8 6h2.9v2.9a7.354 7.354 0 0 1 -2.9-2.9zm4.9 3.8v-3.7h4v3.7a6.449 6.449 0 0 1 -2 .3c-.7-.1-1.4-.2-2-.3zm6-.8v-2.9h2.9a8.929 8.929 0 0 1 -2.9 2.9z"/><path d="m307.9 1055.4a.992.992 0 0 0 -1.3-.5l-2.8 1.2-3.3-2.1-1.6.8 3.1 2h.1l-2.4 1.1-2.1-.9-1.6.9 4 2 2.2-1-1.5 4 1.8-.9 2.2-4 2.7-1.2a1.15 1.15 0 0 0 .5-1.4z"/></g></svg>