<svg xmlns="http://www.w3.org/2000/svg" xmlns:xlink="http://www.w3.org/1999/xlink" viewBox="312.922 152.503 1046.448 285.825">
  <defs>
    <style>
      .cls-1, .cls-3 {
        fill: #fff;
      }

      .cls-2 {
        clip-path: url(#clip-path);
      }

      .cls-3 {
        font-size: 123px;
        font-family: Raleway-Black, Raleway;
        font-weight: 800;
      }
    </style>
    <clipPath id="clip-path">
      <path id="path-1" class="cls-1" d="M802.833,340.831s17.758-12.506,36.358-16.721a114.434,114.434,0,0,1,39.263-2.239c5.865.78,27.916,8.753,38.887,22.379s12.523,15.77,12.523,15.77,183.921,55.77,190.995,56,240.762-41.734,237.477-56-12.129-94.523-12.508-106.914-64.8-81.516-89.176-86.516-54.445-9.664-77.055-8.98,65.684-11.824-77.3,0S853.324,178.867,810.25,178.527s-64.93,3.066-158.148,0-118.227-8.07-153.723-4.66-60-21.367-118.234,22.512-67.582,81.277-68.211,97.992S336.7,379.066,342,389.754,418.414,435,437.617,435.8s58.488,8.867,95.75-8.754,17.68-12.508,56.84-26.832,39.41-20,61.895-16.141,30.824,8.414,54.191,0,37.77-12.852,47.242-16.941S802.833,340.831,802.833,340.831Z" transform="translate(-139 -123)"/>
    </clipPath>
  </defs>
  <g id="group-mask-2" class="cls-2" transform="translate(140 123)">
    <text id="pedro_Marins" data-name="pedro Marins" class="cls-3" transform="translate(683 221)"><tspan x="-459.774" y="0">PEDRO MARINS</tspan></text>
  </g>
</svg>
