<svg xmlns="http://www.w3.org/2000/svg" viewBox="367 2832 20 20">
  <defs>
    <style>
      .cls-1 {
        fill: #dd4358;
      }
    </style>
  </defs>
  <g id="group-20" transform="translate(141 208)">
    <path id="path" class="cls-1" d="M10,20A10,10,0,1,1,20,10,10.029,10.029,0,0,1,10,20ZM10,2a8,8,0,1,0,8,8A8.024,8.024,0,0,0,10,2Z" transform="translate(226 2624)"/>
    <path id="path-2" data-name="path" class="cls-1" d="M10,16a.749.749,0,0,1-.5-.1C8.9,15.5,4,12.5,4,9A3.779,3.779,0,0,1,8,5a2.973,2.973,0,0,1,2,.8A2.973,2.973,0,0,1,12,5a3.779,3.779,0,0,1,4,4c0,3.5-4.9,6.5-5.5,6.9A.749.749,0,0,1,10,16ZM8,7A1.838,1.838,0,0,0,6,9c0,1.7,2.6,3.8,4,4.8,1.4-1,4-3.1,4-4.8a1.838,1.838,0,0,0-2-2,1.285,1.285,0,0,0-1,1,.945.945,0,0,1-1,1A1,1,0,0,1,9,8,1.285,1.285,0,0,0,8,7Z" transform="translate(226 2624)"/>
  </g>
</svg>
