<svg xmlns="http://www.w3.org/2000/svg" viewBox="1263 3077 20 23.4">
  <defs>
    <style>
      .cls-1 {
        fill: #dd4358;
      }
    </style>
  </defs>
  <g id="group-14" transform="translate(140 113)">
    <path id="path" class="cls-1" d="M18,10.4H2a2.006,2.006,0,0,0-2,2v9a2.006,2.006,0,0,0,2,2H18a2.006,2.006,0,0,0,2-2v-9A2.006,2.006,0,0,0,18,10.4Zm-1.9,2L10,16.2,3.9,12.4H16.1ZM2,21.4V13.6l7.5,4.7c.2.1.3.2.5.2a.764.764,0,0,0,.5-.2L18,13.6v7.8Z" transform="translate(1123 2964)"/>
    <path id="path-2" data-name="path" class="cls-1" d="M9,3.8V8.4h2V3.8l2.3,2.3,1.4-1.4L10,0,5.3,4.7,6.7,6.1Z" transform="translate(1123 2964)"/>
  </g>
</svg>
