<svg height="42" viewBox="0 0 120 42" width="120" xmlns="http://www.w3.org/2000/svg"><path d="m3.410156.453125 113.351563.199219c1.585937 0 3-.234375 3 3.164062l-.140625 37.328125h-119.074219v-37.46875c0-1.675781.164063-3.222656 2.863281-3.222656z" fill="#aab2ab"/><path d="m117.753906 0h-115.507812c-1.238281 0-2.246094 1.007813-2.246094 2.246094v39.246094c0 .28125.226563.507812.507813.507812h118.984375c.28125 0 .507812-.226562.507812-.507812v-39.246094c0-1.238281-1.007812-2.246094-2.246094-2.246094zm-115.507812 1.015625h115.507812c.679688 0 1.230469.550781 1.230469 1.230469v27.222656h-82.554687c-3.027344 5.46875-8.859375 9.183594-15.546875 9.183594-6.695313 0-12.523438-3.710938-15.546875-9.183594h-4.320313c0-11.425781 0-27.222656 0-27.222656 0-.679688.550781-1.230469 1.230469-1.230469z"/><path d="m34.523438 19.550781c.003906 7.53125-6.097657 13.636719-13.628907 13.640625-7.527343.007813-13.636718-6.09375-13.640625-13.625 0-.003906 0-.007812 0-.015625-.007812-7.527343 6.09375-13.636718 13.625-13.640625 7.53125-.003906 13.640625 6.09375 13.644532 13.625z" fill="#fff"/><path d="m31.972656 8.445313c3.023438 3.023437 4.535157 6.726562 4.535157 11.105468 0 4.378907-1.488282 8.042969-4.457032 10.988282-3.15625 3.101562-6.882812 4.652343-11.183593 4.652343-4.25 0-7.910157-1.539062-10.984375-4.613281-3.078125-3.074219-4.613282-6.75-4.613282-11.027344 0-4.273437 1.535157-7.976562 4.613282-11.105468 2.996093-3.023438 6.65625-4.535157 10.984375-4.535157 4.378906 0 8.082031 1.511719 11.105468 4.535157zm-20.054687 2.035156c-2.558594 2.582031-3.835938 5.605469-3.835938 9.074219s1.265625 6.46875 3.792969 8.996093c2.53125 2.53125 5.542969 3.792969 9.039063 3.792969 3.496093 0 6.53125-1.277344 9.113281-3.832031 2.453125-2.371094 3.679687-5.359375 3.679687-8.957031 0-3.570313-1.246093-6.601563-3.738281-9.09375-2.492187-2.488282-5.507812-3.734375-9.054687-3.734375s-6.546875 1.25-8.996094 3.753906zm6.726562 7.550781c-.390625-.851562-.976562-1.277344-1.757812-1.277344-1.375 0-2.066406.925782-2.066406 2.78125 0 1.855469.691406 2.785157 2.066406 2.785157.910156 0 1.5625-.453125 1.953125-1.359375l1.910156 1.019531c-.910156 1.617187-2.277344 2.425781-4.097656 2.425781-1.40625 0-2.53125-.429687-3.378906-1.292969-.84375-.859375-1.269532-2.046875-1.269532-3.5625 0-1.488281.4375-2.667968 1.308594-3.542968s1.960938-1.3125 3.261719-1.3125c1.925781 0 3.304687.757812 4.136719 2.277343zm8.988282 0c-.390625-.851562-.964844-1.277344-1.71875-1.277344-1.40625 0-2.109375.925782-2.109375 2.78125 0 1.855469.703125 2.785157 2.109375 2.785157.914062 0 1.550781-.453125 1.914062-1.359375l1.953125 1.019531c-.910156 1.617187-2.273437 2.425781-4.089844 2.425781-1.40625 0-2.527343-.429687-3.375-1.292969-.839843-.859375-1.265625-2.046875-1.265625-3.5625 0-1.488281.429688-2.667968 1.289063-3.542968.855469-.875 1.945312-1.3125 3.273437-1.3125 1.921875 0 3.296875.757812 4.128907 2.277343z"/><path d="m62.503906 15.222656c0 5.929688-4.808593 10.738282-10.742187 10.738282-5.929688 0-10.738281-4.808594-10.738281-10.738282 0-5.929687 4.808593-10.738281 10.738281-10.738281 5.933594 0 10.742187 4.808594 10.742187 10.738281z" fill="#fff"/><path d="m54.871094 12.117188c0-.414063-.335938-.75-.75-.75h-4.742188c-.414062 0-.75.335937-.75.75v4.742187h1.324219v5.617188h3.59375v-5.617188h1.324219z"/><path d="m53.371094 9.121094c0 .894531-.722656 1.621094-1.621094 1.621094-.894531 0-1.621094-.726563-1.621094-1.621094s.726563-1.621094 1.621094-1.621094c.898438 0 1.621094.726563 1.621094 1.621094z"/><path d="m51.734375 3.390625c-3.210937 0-5.929687 1.121094-8.15625 3.363281-2.28125 2.320313-3.421875 5.0625-3.421875 8.234375 0 3.167969 1.140625 5.894532 3.421875 8.171875 2.285156 2.28125 5.003906 3.421875 8.15625 3.421875 3.195313 0 5.960938-1.148437 8.304688-3.449218 2.207031-2.183594 3.308593-4.898438 3.308593-8.144532 0-3.25-1.121093-5.992187-3.367187-8.234375-2.246094-2.242187-4.992188-3.363281-8.246094-3.363281zm.03125 2.089844c2.632813 0 4.867188.925781 6.703125 2.78125 1.859375 1.835937 2.789063 4.078125 2.789063 6.726562 0 2.664063-.910157 4.878907-2.730469 6.636719-1.914063 1.894531-4.167969 2.839844-6.761719 2.839844s-4.828125-.9375-6.707031-2.8125c-1.875-1.871094-2.8125-4.09375-2.8125-6.664063 0-2.570312.945312-4.8125 2.84375-6.726562 1.820312-1.855469 4.042969-2.78125 6.675781-2.78125z" fill-rule="evenodd"/><g fill="#fff"><path d="m48.402344 32.746094c.3125 0 .601562.03125.863281.085937.257813.054688.484375.144532.667969.273438.1875.125.328125.292969.433594.503906.101562.210938.152343.46875.152343.777344 0 .335937-.074218.613281-.226562.835937-.152344.222657-.378906.402344-.675781.546875.410156.117188.714843.324219.917968.617188s.304688.648437.304688 1.0625c0 .332031-.066406.621094-.195313.867187-.132812.242188-.308593.445313-.527343.597657-.21875.15625-.472657.269531-.753907.34375-.28125.074218-.570312.113281-.867187.113281h-3.21875v-6.625zm-.1875 2.679687c.261719 0 .472656-.0625.640625-.183593.167969-.125.25-.324219.25-.601563 0-.15625-.027344-.28125-.082031-.378906-.054688-.101563-.128907-.175781-.222657-.234375-.09375-.054688-.199218-.09375-.320312-.113281-.121094-.023438-.246094-.035157-.378906-.035157h-1.363282v1.546875zm.085937 2.808594c.140625 0 .277344-.011719.40625-.039062.132813-.027344.246094-.074219.347657-.140625.097656-.0625.175781-.152344.234375-.265625.058593-.109375.089843-.25.089843-.425782 0-.339843-.097656-.582031-.289062-.726562s-.445313-.21875-.761719-.21875h-1.589844v1.816406z"/><path d="m51.09375 32.746094h1.632813l1.550781 2.617187 1.542969-2.617187h1.625l-2.460938 4.082031v2.542969h-1.460937v-2.582031z"/><path d="m98.441406 37.730469c.078125.15625.183594.28125.320313.378906.132812.09375.285156.164063.464844.210938.179687.046875.363281.070312.554687.070312.128906 0 .269531-.011719.417969-.03125.148437-.023437.285156-.0625.417969-.125.128906-.0625.234375-.148437.324218-.257812.082032-.105469.128907-.246094.128907-.410157 0-.179687-.058594-.324218-.171875-.4375-.113282-.109375-.265625-.203125-.449219-.277343-.1875-.074219-.398438-.140625-.628906-.195313-.238282-.054687-.472657-.117187-.714844-.183594-.246094-.0625-.488281-.140625-.722656-.230468-.234375-.085938-.445313-.203125-.628907-.347657-.1875-.140625-.335937-.320312-.449218-.53125-.113282-.214843-.171875-.472656-.171875-.773437 0-.34375.074218-.636719.21875-.886719.144531-.25.332031-.460937.566406-.628906.234375-.164063.503906-.289063.800781-.371094.292969-.078125.589844-.117187.886719-.117187.347656 0 .679687.039062.996094.113281.320312.078125.601562.203125.847656.378906.25.171875.445312.394531.589844.660156.144531.273438.21875.597657.21875.980469h-1.414063c-.011719-.199219-.054687-.363281-.125-.492187-.070312-.128907-.164062-.230469-.28125-.304688-.117187-.074219-.25-.128906-.402344-.15625-.148437-.03125-.316406-.046875-.492187-.046875-.117188 0-.234375.011719-.351563.035156-.117187.027344-.222656.070313-.316406.128907-.097656.0625-.175781.140625-.238281.234375-.058594.09375-.089844.210937-.089844.351562 0 .128906.023438.234375.070313.316406.050781.078125.148437.15625.292968.222657.148438.066406.347657.136718.601563.203125.257812.066406.59375.15625 1.007812.261718.121094.023438.292969.070313.511719.132813.21875.066406.4375.167969.652344.3125.21875.140625.402344.332031.5625.570312.15625.238282.234375.542969.234375.914063 0 .300781-.058594.582031-.175781.84375-.117188.257812-.292969.484375-.523438.671875s-.519531.335937-.863281.441406-.738281.15625-1.191406.15625c-.363282 0-.71875-.042969-1.0625-.132812-.34375-.089844-.644532-.230469-.90625-.425782-.265625-.191406-.472657-.4375-.628907-.734375-.152343-.296875-.226562-.648437-.222656-1.054687h1.414063c0 .222656.039062.410156.121093.5625z"/><path d="m106.644531 32.746094 2.476563 6.625h-1.511719l-.5-1.476563h-2.476562l-.519532 1.476563h-1.464843l2.503906-6.625zm.085938 4.0625-.835938-2.429688h-.019531l-.859375 2.429688z"/><path d="m72.519531 32.746094 2.765625 4.445312h.015625v-4.445312h1.367188v6.625h-1.457031l-2.757813-4.433594h-.019531v4.433594h-1.363281v-6.625z"/><path d="m82.195313 34.511719c-.085938-.140625-.195313-.261719-.324219-.367188-.128906-.105468-.277344-.1875-.441406-.246093-.164063-.058594-.335938-.085938-.515625-.085938-.328125 0-.605469.0625-.835938.1875-.226562.128906-.414062.296875-.554687.511719-.140625.210937-.246094.453125-.3125.726562-.0625.273438-.097657.554688-.097657.84375 0 .277344.035157.550782.097657.8125.066406.261719.171875.5.3125.707032.140625.210937.328125.378906.554687.507812.230469.125.507813.1875.835938.1875.445312 0 .792968-.132812 1.042968-.40625.253907-.273437.40625-.632812.460938-1.078125h1.410156c-.035156.414063-.132812.789063-.289062 1.125-.152344.332031-.359375.617188-.609375.851563-.253907.238281-.550782.417968-.890625.542968-.339844.121094-.714844.183594-1.125.183594-.507813 0-.960938-.085937-1.367188-.265625-.40625-.171875-.746094-.417969-1.027344-.726562-.277343-.308594-.492187-.671875-.640625-1.089844-.148437-.417969-.222656-.867188-.222656-1.351563 0-.496093.074219-.953125.222656-1.378906.148438-.421875.363282-.792969.640625-1.109375.28125-.3125.621094-.5625 1.027344-.742187.40625-.179688.859375-.265625 1.367188-.265625.367187 0 .710937.050781 1.035156.15625.324219.105468.617187.257812.871094.460937.257812.199219.46875.449219.636718.746094.167969.296875.273438.636719.316407 1.019531h-1.410157c-.027343-.164062-.082031-.320312-.167968-.457031z"/><path d="m114.578125 14.980469c.007813 5.84375-4.730469 10.585937-10.574219 10.59375-5.847656 0-10.589843-4.730469-10.59375-10.578125 0-.003906 0-.011719 0-.015625-.003906-5.84375 4.730469-10.585938 10.578125-10.589844 5.84375-.007812 10.585938 4.730469 10.589844 10.574219z"/></g><path d="m103.917969 3.386719c-3.210938 0-5.929688 1.121094-8.15625 3.359375-2.28125 2.320312-3.425781 5.066406-3.425781 8.234375s1.144531 5.894531 3.425781 8.175781c2.285156 2.28125 5.003906 3.417969 8.15625 3.417969 3.195312 0 5.960937-1.148438 8.300781-3.449219 2.207031-2.183594 3.3125-4.898437 3.3125-8.144531s-1.125-5.992188-3.367187-8.234375c-2.246094-2.238281-4.992188-3.359375-8.246094-3.359375zm.03125 2.085937c2.628906 0 4.863281.925782 6.703125 2.785157 1.859375 1.832031 2.785156 4.074218 2.785156 6.722656 0 2.667969-.90625 4.878906-2.726562 6.640625-1.914063 1.890625-4.171875 2.839844-6.761719 2.839844-2.59375 0-4.828125-.9375-6.707031-2.8125-1.875-1.875-2.816407-4.097657-2.816407-6.667969 0-2.570313.949219-4.8125 2.847657-6.722656 1.816406-1.859375 4.042968-2.785157 6.675781-2.785157z"/><path d="m98.777344 13.34375c.464844-2.917969 2.515625-4.476562 5.09375-4.476562 3.699219 0 5.957031 2.6875 5.957031 6.269531 0 3.492187-2.402344 6.207031-6.015625 6.207031-2.488281 0-4.714844-1.527344-5.121094-4.535156h2.921875c.085938 1.5625 1.097657 2.109375 2.546875 2.109375 1.644532 0 2.71875-1.53125 2.71875-3.871094 0-2.453125-.925781-3.753906-2.664062-3.753906-1.269531 0-2.371094.464844-2.601563 2.050781l.847657-.003906-2.296875 2.296875-2.300782-2.296875z"/><path d="m88.628906 14.980469c.003907 5.957031-4.820312 10.789062-10.777343 10.792969-5.957032.003906-10.792969-4.820313-10.796875-10.777344 0-.003906 0-.011719 0-.015625-.003907-5.957031 4.824218-10.789063 10.78125-10.792969 5.957031-.003906 10.789062 4.820313 10.792968 10.777344z" fill="#fff"/><path d="m77.828125 3.386719c3.25 0 5.996094 1.121094 8.242188 3.359375 2.246093 2.242187 3.367187 4.988281 3.367187 8.234375s-1.101562 5.960937-3.308594 8.144531c-2.339843 2.300781-5.109375 3.449219-8.300781 3.449219-3.15625 0-5.875-1.136719-8.15625-3.417969-2.285156-2.28125-3.425781-5.007812-3.425781-8.175781s1.140625-5.914063 3.425781-8.234375c2.226563-2.238281 4.941406-3.359375 8.15625-3.359375zm-8.972656 8.480469c-.347656.976562-.519531 2.015625-.519531 3.113281 0 2.570312.9375 4.792969 2.816406 6.667969 1.875 1.875 4.109375 2.8125 6.703125 2.8125s4.847656-.949219 6.765625-2.84375c.640625-.617188 1.167969-1.292969 1.582031-2.027344l-4.371094-1.945313c-.296875 1.46875-1.605468 2.464844-3.191406 2.582032v1.785156h-1.332031v-1.785156c-1.300781-.015625-2.558594-.550782-3.519531-1.390625l1.597656-1.609375c.769531.722656 1.539062 1.046875 2.589844 1.046875.679687 0 1.433593-.265625 1.433593-1.152344 0-.3125-.121093-.53125-.3125-.695313l-1.105468-.492187-1.378907-.613281c-.679687-.304688-1.257812-.558594-1.835937-.816407zm9-6.394532c-2.632813 0-4.855469.925782-6.675781 2.785157-.496094.496093-.925782 1.019531-1.289063 1.5625l4.429688 1.976562c.402343-1.230469 1.570312-1.976562 2.988281-2.058594v-1.789062h1.332031v1.789062c.917969.042969 1.921875.292969 2.914063 1.0625l-1.523438 1.566407c-.5625-.398438-1.273437-.679688-1.984375-.679688-.574219 0-1.386719.175781-1.386719.898438 0 .113281.035157.210937.101563.296875l1.484375.660156 1.003906.445312c.640625.285157 1.253906.558594 1.863281.828125l5.941407 2.648438c.195312-.78125.292968-1.609375.292968-2.484375 0-2.648438-.929687-4.890625-2.785156-6.722656-1.839844-1.859375-4.074219-2.785157-6.707031-2.785157z"/></svg>