<svg xmlns="http://www.w3.org/2000/svg" viewBox="660 2832 21.977 20">
  <defs>
    <style>
      .cls-1 {
        fill: #dd4358;
      }
    </style>
  </defs>
  <g id="group-10" transform="translate(-462 83.2)">
    <path id="path" class="cls-1" d="M303.7,1065.8H300v-2h-2v2h-4v-4h2v-2h-2v-3.7a6.449,6.449,0,0,1,2-.3v-2a10,10,0,1,0,10,10h-2A6.449,6.449,0,0,1,303.7,1065.8Zm-11.7-8.9v2.9h-2.9A8.06,8.06,0,0,1,292,1056.9Zm-3.7,4.9H292v4h-3.7a6.447,6.447,0,0,1-.3-2A6.929,6.929,0,0,1,288.3,1061.8Zm.8,6H292v2.9A7.354,7.354,0,0,1,289.1,1067.8Zm4.9,3.8v-3.7h4v3.7a6.449,6.449,0,0,1-2,.3C295.3,1071.8,294.6,1071.7,294,1071.6Zm6-.8v-2.9h2.9A8.929,8.929,0,0,1,300,1070.8Z" transform="translate(836 1695)"/>
    <path id="path-2" data-name="path" class="cls-1" d="M307.9,1055.4a.992.992,0,0,0-1.3-.5l-2.8,1.2-3.3-2.1-1.6.8,3.1,2h.1l-2.4,1.1-2.1-.9-1.6.9,4,2,2.2-1-1.5,4,1.8-.9,2.2-4,2.7-1.2A1.15,1.15,0,0,0,307.9,1055.4Z" transform="translate(836 1695)"/>
  </g>
</svg>
