<?xml version="1.0" encoding="utf-8"?>
<!-- Generator: Adobe Illustrator 19.1.0, SVG Export Plug-In . SVG Version: 6.00 Build 0)  -->
<svg version="1.1" id="Layer_1" xmlns="http://www.w3.org/2000/svg" xmlns:xlink="http://www.w3.org/1999/xlink" x="0px" y="0px"
	 viewBox="0 0 50 50" style="enable-background:new 0 0 50 50;" xml:space="preserve">
<style type="text/css">
	.st0{fill:none;stroke:#000000;stroke-width:2;stroke-linejoin:round;stroke-miterlimit:10;}
	.st1{fill:#7AC943;stroke:#000000;stroke-width:2;stroke-miterlimit:10;}
	.st2{fill:none;stroke:#000000;stroke-width:2;stroke-linecap:round;stroke-linejoin:round;stroke-miterlimit:10;}
	.st3{fill:none;stroke:#000000;stroke-width:2;stroke-miterlimit:10;}
	.st4{fill:none;stroke:#000000;stroke-width:2;stroke-linecap:round;stroke-miterlimit:10;}
</style>
<g>
	<g>
		<path class="st2" d="M15.7,30.2l-6.2-2.1l4.1-3.1h5.2c2-4,3.8-7.8,8-12.2c3.2-3.3,13.5-2.2,13.5-2.2s1.1,10.3-2.2,13.5
			c-4.3,4.3-8.1,6.1-12.2,8v5.2l-3.1,4.1l-2.1-6.2L15.7,30.2z"/>
		<path class="st2" d="M14.6,34.3c0,0-2.6,0.7-3.8,1.9c-1.2,1.2-1.4,5.4-1.4,5.4s4.5,0.1,5.7-1.1s1.6-4.1,1.6-4.1"/>
	</g>
	<circle class="st2" cx="31.2" cy="19.8" r="3.1"/>
</g>
</svg>
